<?xml version="1.0" encoding="UTF-8"?>
<svg version="1.1" xmlns="http://www.w3.org/2000/svg" width="1000" height="1000">
<path d="M0 0 C1.11294434 0.15597656 2.22588867 0.31195313 3.37255859 0.47265625 C61.67186786 8.92069784 116.49768944 29.87367683 164 65 C164.58330078 65.43022461 165.16660156 65.86044922 165.76757812 66.30371094 C189.55314075 83.95684287 211.77990487 104.6125114 230 128 C230.41620605 128.53254395 230.83241211 129.06508789 231.26123047 129.61376953 C235.9709491 135.6493406 240.61859089 141.71998028 245 148 C244.67 148.66 244.34 149.32 244 150 C241.64351776 147.50217427 239.29025984 145.00133185 236.9375 142.5 C236.28072266 141.80390625 235.62394531 141.1078125 234.94726562 140.390625 C231.68117905 136.91538017 228.469679 133.41314582 225.35546875 129.80078125 C220.66606751 124.40415865 215.34871739 119.72415679 210 115 C209.49726562 114.55253418 208.99453125 114.10506836 208.4765625 113.64404297 C146.92441984 59.12813941 63.3521257 31.37491721 -18.48828125 35.27734375 C-25.01032528 35.68448381 -31.50495513 36.28541746 -38 37 C-38.91458984 37.09796875 -39.82917969 37.1959375 -40.77148438 37.296875 C-98.13172602 43.72189838 -155.38070706 67.30768777 -200 104 C-200.52706543 104.43231934 -201.05413086 104.86463867 -201.59716797 105.31005859 C-216.6466992 117.70352805 -231.57687622 130.92763864 -244 146 C-244.41685059 146.50305664 -244.83370117 147.00611328 -245.26318359 147.52441406 C-261.6600299 167.39212565 -275.95026819 188.66193216 -287.02148438 211.96191406 C-288.04762658 214.09919829 -289.10747801 216.21746836 -290.171875 218.3359375 C-303.06135268 244.2964348 -311.40276165 272.40955582 -316 301 C-315.5875 300.030625 -315.175 299.06125 -314.75 298.0625 C-298.39761387 259.9613443 -276.50461947 225.33308099 -247 196 C-245.87134653 194.84998721 -244.74382198 193.6988658 -243.6171875 192.546875 C-236.39097128 185.19540437 -229.1182497 178.36295247 -221 172 C-219.20707008 170.50151018 -217.41542575 169.00148096 -215.625 167.5 C-209.67383687 162.61677353 -203.38239902 158.29213797 -197 154 C-196.34 154.33 -195.68 154.66 -195 155 C-205.50060557 164.59338413 -205.50060557 164.59338413 -210.125 168.5625 C-218.27913351 175.68698733 -225.30865133 183.50017872 -232 192 C-232.804375 193.010625 -233.60875 194.02125 -234.4375 195.0625 C-264.91036479 233.67861415 -285.91275209 284.02949093 -286.203125 333.78515625 C-286.21009399 334.59586578 -286.21706299 335.40657532 -286.22424316 336.24185181 C-286.24155073 338.8487879 -286.24796415 341.45550883 -286.25 344.0625 C-286.25100708 344.95272858 -286.25201416 345.84295715 -286.25305176 346.76016235 C-286.81262842 381.67385551 -286.81262842 381.67385551 -272 412 C-260.63807439 421.6453757 -248.27545368 422.76970566 -233.96777344 421.62109375 C-228.10018181 421.11640488 -222.23746682 420.56065954 -216.375 420 C-213.34895403 419.71162082 -210.32279508 419.42500629 -207.29605103 419.14404297 C-205.425663 418.97037773 -203.5556488 418.79261481 -201.68612671 418.60986328 C-178.19815624 416.42634066 -157.22729816 421.13899126 -138.8125 436.3125 C-133.78277884 440.89536577 -128.17679397 446.46961809 -126 453 C-126.6064183 453.00364563 -127.21283661 453.00729126 -127.83763123 453.01104736 C-134.18144281 453.05304044 -140.52454219 453.12250293 -146.86791992 453.20751953 C-149.23145403 453.23564722 -151.59508078 453.25690231 -153.95874023 453.27099609 C-157.36750432 453.29253874 -160.77516421 453.33924927 -164.18359375 453.390625 C-165.23083115 453.39185364 -166.27806854 453.39308228 -167.35704041 453.39434814 C-175.94961608 453.56372134 -183.83589265 455.6597753 -190 462 C-194.70061616 469.28197147 -195.52574497 475.85077472 -193.76269531 484.24902344 C-192.45369124 488.97048883 -190.2610548 493.14335547 -187.9375 497.4375 C-187.44507813 498.35692383 -186.95265625 499.27634766 -186.4453125 500.22363281 C-176.23405553 518.84532429 -160.51579173 531.99888072 -140.1875 538.375 C-135.07616779 539.64126638 -130.00351054 540.46251323 -124.7734375 541.015625 C-123.60948204 541.14198837 -123.60948204 541.14198837 -122.42201233 541.27090454 C-116.70391999 541.8707612 -110.98205538 542.32260936 -105.24609375 542.7109375 C-104.43885361 542.76651825 -103.63161346 542.822099 -102.7999115 542.87936401 C-99.50895636 543.1043449 -96.218216 543.3279552 -92.92553711 543.52636719 C-71.56347963 544.83352612 -71.56347963 544.83352612 -64.8359375 552.10546875 C-61.37464181 556.58472271 -58.50638017 561.44894411 -55.625 566.3125 C-54.38486858 568.37805704 -53.14395344 570.44314371 -51.90234375 572.5078125 C-51.26151855 573.57676758 -50.62069336 574.64572266 -49.96044922 575.74707031 C-46.74316557 581.08543735 -43.4632067 586.38485897 -40.1875 591.6875 C-33.82945391 602.00039294 -27.52094215 612.34237709 -21.24414062 622.70483398 C-20.54168892 623.86443406 -19.8392151 625.02402073 -19.13671875 626.18359375 C-18.79236786 626.75202499 -18.44801697 627.32045624 -18.0932312 627.90611267 C-15.72612887 631.81047673 -13.34481539 635.7059123 -10.95703125 639.59765625 C-10.32039551 640.63704346 -9.68375977 641.67643066 -9.02783203 642.74731445 C-7.84264613 644.68106365 -6.65501067 646.61331474 -5.46435547 648.54370117 C5.74095961 666.84798294 5.74095961 666.84798294 3.57421875 678.23828125 C1.49608761 685.62010904 -2.96216204 691.44055813 -9.5 695.5 C-16.1472985 698.4081931 -24.52026584 698.07201245 -31.46484375 696.41015625 C-42.93926628 691.47956281 -48.27505336 678.42212977 -53.4375 667.9375 C-54.8470231 665.1103363 -56.26416572 662.28704568 -57.68359375 659.46484375 C-58.03279877 658.76821625 -58.38200378 658.07158875 -58.74179077 657.35385132 C-62.57544897 649.76015574 -66.76642455 642.37592291 -71 635 C-71.75471969 633.67974545 -72.50920428 632.35935646 -73.26342773 631.03881836 C-73.83649658 630.0360083 -74.40956543 629.03319824 -75 628 C-76.65 628 -78.3 628 -80 628 C-78.036514 634.55438111 -75.42848542 640.48014046 -72.25390625 646.53125 C-71.80152084 647.40720825 -71.34913544 648.2831665 -70.88304138 649.18566895 C-69.44894709 651.96031654 -68.00627053 654.73037693 -66.5625 657.5 C-65.12368784 660.27031161 -63.6867976 663.04159124 -62.25267029 665.81433105 C-61.36414888 667.53115287 -60.47278732 669.24650907 -59.57801819 670.96008301 C-51.11351962 687.2749567 -51.11351962 687.2749567 -52 695 C-53.9999797 700.88229323 -58.46584689 705.23292345 -64 708 C-69.77056944 708.58375578 -75.45005216 708.89759491 -80.3371582 705.4128418 C-86.50527911 700.17206721 -90.05389275 692.46822065 -93.625 685.375 C-94.67795074 683.32072345 -95.73268419 681.26735983 -96.7890625 679.21484375 C-97.32176758 678.17827637 -97.85447266 677.14170898 -98.40332031 676.07373047 C-100.86983288 671.3255052 -103.42743096 666.62890428 -106 661.9375 C-106.48581543 661.05094727 -106.97163086 660.16439453 -107.47216797 659.25097656 C-108.46330256 657.44386338 -109.45500622 655.63706221 -110.44726562 653.83056641 C-113.22469996 648.7674259 -115.98623219 643.69560912 -118.75 638.625 C-119.7655596 636.76298516 -120.78117826 634.90100254 -121.796875 633.0390625 C-122.53125 631.69270833 -123.265625 630.34635417 -124 629 C-125.32 629 -126.64 629 -128 629 C-127.45305215 633.07303951 -126.57948295 636.35062447 -124.76953125 640.03515625 C-124.30264893 640.99599121 -123.8357666 641.95682617 -123.35473633 642.94677734 C-122.84579834 643.97496582 -122.33686035 645.0031543 -121.8125 646.0625 C-121.28873779 647.13709473 -120.76497559 648.21168945 -120.2253418 649.31884766 C-119.09324126 651.64155695 -117.95811129 653.96279157 -116.8203125 656.28271484 C-113.9411511 662.15500771 -111.09676734 668.04416124 -108.25180054 673.93307495 C-107.32281518 675.85367423 -106.39078882 677.77277347 -105.45825195 679.69165039 C-104.89066162 680.86332764 -104.32307129 682.03500488 -103.73828125 683.2421875 C-103.23337158 684.2822998 -102.72846191 685.32241211 -102.20825195 686.39404297 C-99.5348659 692.16000028 -98.79074038 698.14219892 -100.71875 704.29296875 C-103.36749617 709.98563693 -107.17063522 713.5796807 -113 716 C-119.38452627 716.68469154 -125.66709645 716.93619072 -131 713 C-136.26968791 707.90431122 -139.06632176 702.18853242 -141.875 695.5 C-142.32625244 694.45714844 -142.77750488 693.41429687 -143.24243164 692.33984375 C-146.3143249 685.17633741 -149.23214399 677.95456518 -152.12890625 670.71875 C-152.84829168 668.93156882 -153.56785585 667.14445957 -154.28759766 665.35742188 C-155.71655022 661.80866385 -157.12266137 658.25189906 -158.51708984 654.68945312 C-159.17607051 653.04269355 -159.83570836 651.39619676 -160.49609375 649.75 C-160.79052872 648.9813562 -161.08496368 648.2127124 -161.38832092 647.42077637 C-162.30691097 645.05829011 -162.30691097 645.05829011 -164 642 C-166.04536582 641.24966533 -166.04536582 641.24966533 -168 641 C-167.36049728 646.95786716 -165.16044835 652.1985648 -163 657.734375 C-162.18712563 659.85662748 -161.37463774 661.97902802 -160.5625 664.1015625 C-159.28355721 667.42544066 -158.00087265 670.74775424 -156.7109375 674.06738281 C-155.4630613 677.28564023 -154.23064838 680.5094975 -153 683.734375 C-152.42185547 685.20363434 -152.42185547 685.20363434 -151.83203125 686.70257568 C-149.05724031 694.01410598 -146.38884803 701.72227789 -149.4375 709.3125 C-151.98569944 713.62955265 -155.36709793 716.16208455 -160 718 C-167.93240375 719.13320054 -173.69918979 716.15822206 -180.25 711.875 C-186.90316921 704.91941401 -189.73829068 694.88766523 -193.10562134 686.02297974 C-193.88942796 683.96206358 -194.68138385 681.90443705 -195.4753418 679.84741211 C-197.72865597 674.00030242 -199.96146221 668.14796838 -202.08984375 662.25390625 C-205.637034 652.51855907 -209.13402197 643.7835045 -219 639 C-218.76603516 638.19949219 -218.76603516 638.19949219 -218.52734375 637.3828125 C-216.37020041 629.1256678 -216.48109054 621.40903702 -220.69921875 613.81640625 C-223.55179411 609.83308029 -227.19822956 606.8107967 -231.65625 604.8046875 C-234 603 -234 603 -234.78515625 599.55859375 C-234.8959394 598.1862528 -234.98747275 596.81225943 -235.0625 595.4375 C-235.78416289 587.28592697 -237.00852679 579.95733376 -243 574 C-243 573.34 -243 572.68 -243 572 C-243.5775 571.7215625 -244.155 571.443125 -244.75 571.15625 C-247.61872802 569.68204255 -250.28620805 567.95727297 -253 566.21875 C-254.95496516 565.02744311 -256.93875993 563.99381218 -259 563 C-258.835 562.195625 -258.67 561.39125 -258.5 560.5625 C-257.26894301 551.79121893 -257.56135063 544.12086633 -262.62890625 536.57421875 C-267.13215791 531.01565963 -271.89029898 527.37762499 -279 526 C-285.82859938 525.6505433 -292.27841697 526.32454351 -298.98828125 527.53125 C-299.89450729 527.68662231 -300.80073334 527.84199463 -301.73442078 528.0020752 C-304.5952005 528.49356372 -307.45390344 528.99598238 -310.3125 529.5 C-313.18917072 530.00253204 -316.06621517 530.50260983 -318.94413757 530.9979248 C-320.7256972 531.30499383 -322.50651719 531.61639496 -324.28645325 531.93273926 C-332.80447952 533.40976959 -332.80447952 533.40976959 -336 533 C-337.83042508 530.81427577 -339.15490805 528.88189647 -340.5625 526.4375 C-340.98668213 525.7256958 -341.41086426 525.0138916 -341.84790039 524.28051758 C-343.26249175 521.86989396 -344.63586229 519.43950949 -346 517 C-346.47920898 516.14857422 -346.95841797 515.29714844 -347.45214844 514.41992188 C-391.63793989 435.04319935 -401.76403198 339.23669144 -377.625 251.9375 C-364.93744388 207.88038056 -344.14397912 165.53435328 -315 130 C-314.56913086 129.47438477 -314.13826172 128.94876953 -313.69433594 128.40722656 C-298.24370787 109.64654302 -281.44744071 90.68038004 -262 76 C-260.73048814 75.00423733 -259.4623763 74.00668837 -258.1953125 73.0078125 C-248.14083015 65.13393342 -237.76027299 57.87482802 -227 51 C-226.08565186 50.413396 -226.08565186 50.413396 -225.15283203 49.81494141 C-205.28792781 37.18578263 -184.07996684 27.08224731 -162 19 C-161.02240723 18.64067383 -160.04481445 18.28134766 -159.03759766 17.91113281 C-134.42283098 8.99244126 -108.97208268 3.18017041 -83 0 C-81.58267578 -0.17571533 -81.58267578 -0.17571533 -80.13671875 -0.35498047 C-53.96783204 -3.43394214 -26.11567993 -3.67286572 0 0 Z " fill="#3770C1" transform="translate(544,57)"/>
<path d="M0 0 C0.66 0 1.32 0 2 0 C7.47188937 29.05312692 7.65993442 61.98258259 2 91 C1.80664062 92.01513672 1.61328125 93.03027344 1.4140625 94.07617188 C-3.75110905 120.36434436 -12.34113507 146.82597073 -26 170 C-11.30078892 162.99671095 2.9906854 154.17852099 15.25 143.375 C18 141 18 141 20 141 C20 140.34 20 139.68 20 139 C21.3984375 137.58984375 21.3984375 137.58984375 23.375 135.9375 C24.46748047 135.00550781 24.46748047 135.00550781 25.58203125 134.0546875 C26.37996094 133.37664062 27.17789062 132.69859375 28 132 C34.15084277 126.66225464 39.77947161 121.24521888 45 115 C45.80953125 114.07832031 46.6190625 113.15664063 47.453125 112.20703125 C73.10596323 82.87149845 91.4408664 47.4432435 102 10 C103.65981353 15.15948311 102.12475283 19.88188938 101.0625 25.0625 C100.83796143 26.16505127 100.61342285 27.26760254 100.38208008 28.40356445 C88.69017935 83.60256468 63.37578382 134.28205439 28 178 C27.18015625 179.02738281 26.3603125 180.05476562 25.515625 181.11328125 C18.6686165 189.49739974 11.06479418 197.14671241 3.4375 204.8125 C2.90678894 205.34847809 2.37607788 205.88445618 1.82928467 206.43667603 C-5.11094226 213.43006271 -12.25628014 219.88701913 -20 226 C-21.31317567 227.07180015 -22.62459538 228.14575831 -23.93359375 229.22265625 C-31.36343237 235.26741088 -38.90313667 240.8637888 -47 246 C-48.46894434 246.94631298 -49.93767848 247.89295229 -51.40625 248.83984375 C-129.24854285 298.79428908 -129.24854285 298.79428908 -162.5625 294.875 C-163.24441406 294.81054688 -163.92632813 294.74609375 -164.62890625 294.6796875 C-174.12119259 291.95866967 -177.23328433 285.56377975 -181.9375 277.375 C-182.68104392 276.11086041 -183.42652069 274.8478559 -184.17382812 273.5859375 C-185.70913029 270.99152183 -187.2373423 268.39312635 -188.76123047 265.79199219 C-192.08451221 260.13967529 -195.54526988 254.57257564 -199 249 C-204.57828899 239.95951508 -210.11632522 230.89548916 -215.625 221.8125 C-215.98189911 221.22406311 -216.33879822 220.63562622 -216.70651245 220.02935791 C-218.47021051 217.12117867 -220.23347524 214.21273695 -221.99658203 211.30419922 C-226.70828143 203.53328286 -231.42931632 195.76812657 -236.1640625 188.01123047 C-237.47067896 185.86817096 -238.77547092 183.72407735 -240.078125 181.57861328 C-241.88225555 178.60753003 -243.69142184 175.63956251 -245.50363159 172.67340088 C-246.53376218 170.98461256 -247.55906615 169.29288305 -248.58422852 167.60107422 C-254.78686895 157.14800032 -254.78686895 157.14800032 -264.1875 149.75 C-265.04730469 149.27046875 -265.90710938 148.7909375 -266.79296875 148.296875 C-274.49046213 145.18412494 -282.77197995 144.62638445 -290.984375 144.0703125 C-293.075557 143.91324113 -295.16670176 143.75567343 -297.2578125 143.59765625 C-300.49994875 143.35936462 -303.74224082 143.1255375 -306.98535156 142.90087891 C-330.83244302 141.22860797 -350.6527514 136.85388807 -368 119.125 C-374.85456609 111.15132108 -383.34360355 98.22036091 -384.3125 87.5625 C-383.96039734 83.5485297 -383.23239973 81.3485996 -381 78 C-376.75231501 74.64581915 -373.9430257 73.49860367 -368.55075073 73.47860718 C-367.2724791 73.46443756 -365.99420746 73.45026794 -364.67720032 73.43566895 C-363.27291727 73.44025606 -361.86863559 73.44527539 -360.46435547 73.45068359 C-358.9755603 73.4419825 -357.48677409 73.43161391 -355.9980011 73.41970825 C-351.96245414 73.39296777 -347.92728229 73.39176706 -343.89166403 73.39683485 C-340.51490253 73.39897857 -337.13821625 73.3891958 -333.76147091 73.37962401 C-325.78688666 73.35744397 -317.81249079 73.35655077 -309.83789062 73.36865234 C-301.63414211 73.38071133 -293.43108142 73.35616115 -285.22745025 73.31351221 C-278.16728331 73.27816881 -271.10733412 73.26629549 -264.04708207 73.27278769 C-259.83797964 73.27639862 -255.629367 73.27129252 -251.42034531 73.24335861 C-247.45552229 73.21803048 -243.49176124 73.22224719 -239.52695274 73.24818039 C-238.08068277 73.25287564 -236.6343361 73.24757381 -235.18815422 73.23093414 C-223.95648391 73.11113634 -213.95057737 75.53915211 -205.44921875 83.3828125 C-202.17908826 87.0319608 -199.36601586 91.0361081 -196.48291016 94.99169922 C-193.48125715 99.05682889 -190.38594269 103.05156409 -187.3125 107.0625 C-181.25305891 114.98665982 -175.28973777 122.97481245 -169.42895508 131.04711914 C-168.88907959 131.78696045 -168.3492041 132.52680176 -167.79296875 133.2890625 C-167.3239917 133.93568848 -166.85501465 134.58231445 -166.37182617 135.24853516 C-165.02902218 137.04778861 -165.02902218 137.04778861 -163.32543945 138.60693359 C-162 140 -162 140 -162 142 C-161.41347656 142.27199219 -160.82695313 142.54398438 -160.22265625 142.82421875 C-158.04311667 143.97719136 -156.34090291 145.25442289 -154.4375 146.8125 C-142.29082504 156.09846273 -127.80297887 159.15974549 -112.8125 157.3125 C-98.9324194 154.9914677 -88.1039624 148.41614116 -78.03125 138.7578125 C-76 137 -76 137 -74 137 C-73.74347656 136.40445313 -73.48695313 135.80890625 -73.22265625 135.1953125 C-71.88170919 132.78760564 -70.57538217 131.59394364 -68.4375 129.875 C-31.25298184 98.1548734 -9.45649401 46.67057927 0 0 Z " fill="#8BC53E" transform="translate(743,447)"/>
<path d="M0 0 C1.52659413 1.32411393 3.0259651 2.68011494 4.5 4.0625 C5.42167969 4.91714844 6.34335937 5.77179688 7.29296875 6.65234375 C22.84871262 21.43436574 34.34394757 42.18775164 35.67700195 63.95239258 C36.22648957 90.89479934 32.18323318 112.41615444 15.5 134.0625 C14.92507813 134.81015625 14.35015625 135.5578125 13.7578125 136.328125 C0.12298888 152.8986762 -21.77927371 165.18384019 -43.15136719 167.8515625 C-70.52632697 170.31018675 -95.52396685 165.55772233 -117.140625 147.90625 C-136.06448135 131.4204365 -148.71064622 110.24714619 -151.5 85.0625 C-153.13313773 55.29952927 -145.05960999 30.83199288 -125.203125 8.4765625 C-92.48041964 -25.52256045 -37.03026832 -28.34127623 0 0 Z " fill="#50ACE4" transform="translate(619.5,241.9375)"/>
<path d="M0 0 C-0.95700806 0.57947388 -0.95700806 0.57947388 -1.93334961 1.1706543 C-15.53748297 9.44404886 -28.65842629 17.92795493 -41 28 C-41.58330078 28.46905762 -42.16660156 28.93811523 -42.76757812 29.42138672 C-57.50872989 41.33253921 -71.53193392 54.89236804 -83 70 C-83.77988281 70.97453125 -84.55976563 71.9490625 -85.36328125 72.953125 C-101.7878566 93.56833274 -117.58834727 118.52244374 -125 144 C-124.44561752 144.10893585 -123.89123505 144.2178717 -123.3200531 144.33010864 C-117.90803193 145.45392101 -112.91027819 147.00299125 -107.78515625 149.0546875 C-106.21346488 149.66968947 -104.64176871 150.28467919 -103.07006836 150.8996582 C-102.25440399 151.22165192 -101.43873962 151.54364563 -100.59835815 151.87539673 C-82.85193143 158.87081411 -64.98255985 165.43697384 -46.94482422 171.63867188 C-43.18657522 172.93183776 -39.43927504 174.25516847 -35.69140625 175.578125 C59.72429955 208.8115709 163.00445966 220.78426909 256.79882812 176.56982422 C281.67949946 164.36857981 304.05480759 149.06384319 325 131 C325.70640625 130.40703125 326.4128125 129.8140625 327.140625 129.203125 C333.80896843 123.54343856 339.86266328 117.22153798 346 111 C346.33 111.66 346.66 112.32 347 113 C345.73090847 115.432684 344.4093558 117.69206857 342.9375 120 C342.48850342 120.70769531 342.03950684 121.41539062 341.5769043 122.14453125 C331.90835306 137.0780704 320.3938824 150.29120294 308 163 C307.07251616 163.96706396 306.14539535 164.93447631 305.21875 165.90234375 C300.00548655 171.25583739 294.52403748 176.10955623 288.64013672 180.71484375 C287.47647883 181.62664713 286.31706685 182.54388093 285.16064453 183.46484375 C232.7942671 225.1190314 170.0511267 244.80177386 103.5 244.4375 C102.277435 244.43379395 101.05487 244.43008789 99.79525757 244.42626953 C80.251352 244.34223916 61.24848424 243.60626797 42 240 C41.27373413 239.86424561 40.54746826 239.72849121 39.79919434 239.58862305 C-28.0411532 226.7569843 -89.69749262 199.56628368 -151.62890625 170.01953125 C-152.35777039 169.6721994 -153.08663452 169.32486755 -153.83758545 168.9670105 C-158.58554414 166.6971959 -163.2985765 164.3647424 -168 162 C-162.49754277 129.54395635 -137.62396134 95.24579477 -115.5234375 71.7109375 C-113.42580917 69.45744824 -111.4194089 67.16659836 -109.4375 64.8125 C-105.34246916 60.10900939 -100.69715328 56.08814306 -96 52 C-94.98236372 51.08542391 -93.96546503 50.17002661 -92.94921875 49.25390625 C-76.58058219 34.6729455 -23.81510928 -7.93836976 0 0 Z " fill="#3770C1" transform="translate(467,226)"/>
<path d="M0 0 C1.80238129 0.00323273 1.80238129 0.00323273 3.64117432 0.00653076 C21.16863764 0.05704218 38.36296033 0.41814205 55.6875 3.3125 C57.52586426 3.61051514 57.52586426 3.61051514 59.40136719 3.91455078 C122.69606785 14.40082844 181.05369002 37.98473163 238.8125 65.25 C239.9152829 65.77042374 239.9152829 65.77042374 241.04034424 66.30136108 C251.32748279 71.165022 261.52735373 76.18924664 271.6875 81.3125 C272.3475 81.6425 273.0075 81.9725 273.6875 82.3125 C273.0908697 88.47767974 270.63011557 93.85029384 268.25 99.5 C267.80551514 100.55920654 267.36103027 101.61841309 266.90307617 102.7097168 C261.01295564 116.51206328 254.20697748 129.93206782 245.6875 142.3125 C245.31657227 142.85181152 244.94564453 143.39112305 244.56347656 143.94677734 C235.57156444 156.94918371 225.57538192 168.86520265 214.6875 180.3125 C213.95442627 181.08859619 213.95442627 181.08859619 213.20654297 181.88037109 C206.08776161 189.37520309 198.50374928 195.85140198 190.27148438 202.09130859 C188.06682274 203.79101844 185.94674849 205.58810403 183.8125 207.375 C162.68165292 224.25223501 135.02195872 238.83507265 108.6875 245.3125 C107.6975 244.9825 106.7075 244.6525 105.6875 244.3125 C106.22004395 244.00135254 106.75258789 243.69020508 107.30126953 243.36962891 C128.41410523 230.98906569 147.38281608 217.14843691 165.3125 200.4375 C165.95106934 199.84364502 166.58963867 199.24979004 167.24755859 198.63793945 C171.68943515 194.43295518 175.71737773 189.96129615 179.6875 185.3125 C180.55632812 184.32507813 181.42515625 183.33765625 182.3203125 182.3203125 C201.20516986 160.47544615 225.61343702 129.5014396 230.6875 100.3125 C230.14113892 100.20610199 229.59477783 100.09970398 229.03186035 99.99008179 C223.37788315 98.82110744 218.14814943 97.14795891 212.78125 95.0390625 C211.53714104 94.55954636 211.53714104 94.55954636 210.26789856 94.07034302 C208.49381845 93.38617676 206.72075417 92.69937144 204.94863892 92.01013184 C200.22588572 90.17546303 195.49306864 88.36704352 190.76171875 86.5546875 C189.81258102 86.19056763 188.8634433 85.82644775 187.88554382 85.45129395 C161.45257391 75.31414371 134.84680572 66.3190528 107.6875 58.3125 C106.58341797 57.98523926 105.47933594 57.65797852 104.34179688 57.32080078 C72.90103498 48.08946146 40.35827809 41.7908331 7.6875 39.3125 C6.96723633 39.25465332 6.24697266 39.19680664 5.50488281 39.13720703 C-75.81196225 32.73744599 -154.3306833 58.38734853 -216.42553711 111.05566406 C-221.54147683 115.44938079 -226.47791687 120.03137905 -231.41015625 124.62890625 C-234.64086406 127.61611522 -237.93926722 130.48839814 -241.3125 133.3125 C-235.03633007 115.93476316 -218.99432191 98.49335693 -205.71875 85.71875 C-204.14278996 84.20173727 -204.14278996 84.20173727 -202.375 81.8125 C-200.00722134 78.94246526 -197.39241899 76.66356352 -194.56640625 74.25390625 C-192.20365672 72.21874765 -189.91762223 70.11368587 -187.625 68 C-171.8718046 53.84841931 -153.97717183 42.23327644 -135.3125 32.3125 C-134.70325684 31.98330566 -134.09401367 31.65411133 -133.46630859 31.31494141 C-105.34494817 16.20730903 -74.76322068 7.2146586 -43.3125 2.3125 C-42.11214111 2.12486084 -40.91178223 1.93722168 -39.67504883 1.74389648 C-26.49970467 -0.13833965 -13.28404791 -0.04268169 0 0 Z " fill="#50ADE5" transform="translate(550.3125,162.6875)"/>
<path d="M0 0 C0.88623047 -0.00773438 1.77246094 -0.01546875 2.68554688 -0.0234375 C11.9532871 0.00360186 20.27526537 1.46097866 28.5625 5.6875 C29.24304443 6.03312988 29.92358887 6.37875977 30.62475586 6.73486328 C46.24451082 15.08224786 56.17796191 28.89933452 61.4375 45.63671875 C65.21063964 61.06990796 63.17085079 78.55105948 55.625 92.5 C46.23303783 107.17618717 33.76095876 117.59360216 16.6875 122.25 C-0.00324385 125.78758298 -15.83559144 123.03078912 -30.6953125 115.06640625 C-33.36359743 113.21453686 -34.36996785 112.3132295 -35.3125 109.25 C-35.3671875 107.21484375 -35.3671875 107.21484375 -35.1875 105.1875 C-34.94232111 101.37285898 -34.94232111 101.37285898 -36.75 99.25 C-40.01676328 97.97516555 -42.64043486 98.24254058 -46.09375 98.6328125 C-48.3125 98.25 -48.3125 98.25 -50.3984375 96.1328125 C-59.73560285 82.06989815 -62.52166391 66.47711257 -59.5625 49.9375 C-55.23375778 31.9912562 -46.0654357 18.05002684 -30.3125 8.25 C-20.2188513 2.93259999 -11.41032769 -0.09829428 0 0 Z " fill="#3871C1" transform="translate(560.3125,254.75)"/>
<path d="M0 0 C11.75233969 8.34338288 21.32010879 20.71036801 24.546875 34.98828125 C26.6031532 50.85955475 24.64066965 64.91164229 14.94921875 78.09375 C6.78966151 87.95659453 -4.24002551 95.24952809 -17.05078125 97.09375 C-33.73508951 98.46977542 -48.70686912 94.29917399 -61.73828125 83.40625 C-72.61809045 73.16871934 -80.26893549 59.835398 -81.26953125 44.80859375 C-81.64441321 30.45373875 -77.84065703 18.3430233 -68.42578125 7.40625 C-49.46612564 -12.4509041 -22.83973195 -14.09196534 0 0 Z M-50.05078125 23.09375 C-55.35663455 29.4284071 -58.42797218 36.28922287 -59.48828125 44.46875 C-58.42515505 53.27750997 -54.99849096 62.01405953 -48.046875 67.74609375 C-41.08882267 72.69538663 -33.72308103 76.00662366 -25.05078125 75.09375 C-14.76642661 73.18796809 -7.18331537 67.69217447 -1.26953125 59.1171875 C3.23348814 51.64102069 4.36689018 44.04975325 2.328125 35.484375 C-0.69677601 26.82643611 -6.18205573 20.26199482 -14.36328125 16.09375 C-27.55295723 10.13044281 -39.78447 13.11744754 -50.05078125 23.09375 Z " fill="#3770C1" transform="translate(178.05078125,707.90625)"/>
<path d="M0 0 C6.95055336 5.2701998 12.7541972 14.17765628 14.08984375 22.78515625 C15.01467362 32.30319697 13.38342306 39.2746687 9.08984375 47.78515625 C9.76942139 47.89400146 10.44899902 48.00284668 11.14916992 48.11499023 C14.63264722 48.90885866 17.84357074 50.16199706 21.140625 51.5078125 C21.79943161 51.77275009 22.45823822 52.03768768 23.13700867 52.31065369 C25.22711712 53.1522649 27.31473768 53.99985957 29.40234375 54.84765625 C30.82470937 55.42162166 32.24723383 55.99519362 33.66992188 56.56835938 C37.14508429 57.96941065 40.61802907 59.37583084 44.08984375 60.78515625 C44.08984375 61.44515625 44.08984375 62.10515625 44.08984375 62.78515625 C42.68457031 63.88256836 42.68457031 63.88256836 40.73046875 65.0625 C40.02664063 65.49369141 39.3228125 65.92488281 38.59765625 66.36914062 C37.85257813 66.81580078 37.1075 67.26246094 36.33984375 67.72265625 C34.88573015 68.60514392 33.4325759 69.48921464 31.98046875 70.375 C31.28888672 70.7860498 30.59730469 71.19709961 29.88476562 71.62060547 C27.9474962 72.78362791 27.9474962 72.78362791 26.13671875 74.7890625 C23.5330628 76.05610881 22.76280211 75.64294259 20.03515625 74.8046875 C16.48840417 73.4574435 13.10946428 71.84642478 9.70703125 70.171875 C0.05718068 65.02178998 0.05718068 65.02178998 -10.43212891 64.35351562 C-15.3320078 66.62790456 -19.13978629 69.96713548 -22.91015625 73.78515625 C-20.06013983 79.76626869 -16.82995586 84.96957434 -12.9140625 90.29101562 C-9.91015625 94.47752284 -9.91015625 94.47752284 -9.91015625 97.78515625 C-11.65429688 99.22729492 -11.65429688 99.22729492 -14.06640625 100.703125 C-15.35224609 101.50073242 -15.35224609 101.50073242 -16.6640625 102.31445312 C-17.57027344 102.86166016 -18.47648438 103.40886719 -19.41015625 103.97265625 C-20.31636719 104.53146484 -21.22257813 105.09027344 -22.15625 105.66601562 C-24.4018168 107.04881203 -26.65308573 108.4212462 -28.91015625 109.78515625 C-31.91502348 106.1359044 -34.62315268 102.35312583 -37.22265625 98.41015625 C-37.64506592 97.77295654 -38.06747559 97.13575684 -38.50268555 96.47924805 C-46.18473358 84.86418766 -53.76528722 73.18142064 -61.33984375 61.49609375 C-61.88318359 60.65836426 -62.42652344 59.82063477 -62.98632812 58.95751953 C-64.05092503 57.31578206 -65.11474187 55.67353846 -66.17773438 54.03076172 C-68.87438477 49.87412532 -71.60359073 45.74385661 -74.38671875 41.64453125 C-74.94657471 40.81735596 -75.50643066 39.99018066 -76.08325195 39.13793945 C-77.15118232 37.56459097 -78.22496218 35.99519205 -79.30541992 34.43041992 C-80.01661987 33.38204956 -80.01661987 33.38204956 -80.7421875 32.3125 C-81.16218018 31.70140381 -81.58217285 31.09030762 -82.01489258 30.46069336 C-82.91015625 28.78515625 -82.91015625 28.78515625 -82.91015625 25.78515625 C-80.58538293 24.12023974 -78.3071164 22.66347827 -75.84765625 21.22265625 C-74.36849064 20.33027798 -72.89065527 19.43569155 -71.4140625 18.5390625 C-70.66012207 18.08289551 -69.90618164 17.62672852 -69.12939453 17.15673828 C-65.78161116 15.08766821 -62.53726335 12.87529101 -59.28515625 10.66015625 C-41.39077469 -1.38880587 -20.76073166 -13.20365551 0 0 Z M-44.91015625 24.47265625 C-46.07224609 25.23932617 -46.07224609 25.23932617 -47.2578125 26.02148438 C-49.14670582 27.26908675 -51.03053537 28.52364639 -52.91015625 29.78515625 C-47.49329773 39.54659413 -41.31698441 48.65571576 -34.91015625 57.78515625 C-18.9641133 49.72007033 -18.9641133 49.72007033 -8.91015625 35.78515625 C-8.32297973 29.7959557 -9.60448551 25.69034509 -12.91015625 20.78515625 C-16.50093553 17.36953694 -19.11554127 15.92591037 -24.09765625 15.53515625 C-32.20962356 16.06708853 -38.33116849 20.05435858 -44.91015625 24.47265625 Z " fill="#8BC53E" transform="translate(790.91015625,772.21484375)"/>
<path d="M0 0 C4.70866894 4.60165374 6.4174015 9.14639624 6.75 15.6875 C6.25691636 23.07042805 3.25394809 27.83308616 -2.25 32.6875 C-5.6875 34.6875 -5.6875 34.6875 -8.25 35.6875 C-7.45078125 35.543125 -6.6515625 35.39875 -5.828125 35.25 C15.21291346 31.69376815 15.21291346 31.69376815 22.99609375 36.2109375 C27.18579274 39.73812284 30.032657 44.535471 31.75 49.6875 C32.14789597 55.55646555 31.84289186 60.55657675 28.75 65.6875 C21.19608291 74.00988918 12.95904621 75.3539978 2.25024414 77.02954102 C0.08434178 77.37155104 -2.07769717 77.73310285 -4.24023438 78.09570312 C-21.9487148 80.95987709 -21.9487148 80.95987709 -29.5625 76.9375 C-37.98779855 69.88376168 -37.98779855 69.88376168 -39.25 63.6875 C-39.77237879 57.4376109 -40.06986342 51.93981221 -36.25 46.6875 C-30.04704017 40.58602008 -30.04704017 40.58602008 -26.25 38.6875 C-27.41015625 38.9040625 -28.5703125 39.120625 -29.765625 39.34375 C-54.41507455 43.8045547 -54.41507455 43.8045547 -62.49609375 39.09765625 C-67.06635609 35.42312461 -70.83483987 30.45797073 -71.48828125 24.5234375 C-71.70779449 17.24484047 -70.60375203 11.52891495 -65.71875 5.93359375 C-58.6212147 0.130486 -48.73917595 -0.49035855 -39.97900391 -1.87451172 C-37.37885931 -2.29181888 -34.78957448 -2.74875458 -32.19921875 -3.22265625 C-30.63294455 -3.503342 -29.06654427 -3.78332544 -27.5 -4.0625 C-26.79883057 -4.19035889 -26.09766113 -4.31821777 -25.37524414 -4.44995117 C-15.6258921 -6.10216694 -8.34953845 -5.94101774 0 0 Z M-20.25 36.6875 C-20.25 37.0175 -20.25 37.3475 -20.25 37.6875 C-18.27 37.6875 -16.29 37.6875 -14.25 37.6875 C-14.25 37.3575 -14.25 37.0275 -14.25 36.6875 C-16.23 36.6875 -18.21 36.6875 -20.25 36.6875 Z " fill="#8AC53E" transform="translate(311.25,673.3125)"/>
<path d="M0 0 C3.86715038 2.12246797 6.74405677 4.52746145 9.8125 7.6875 C10.60269531 8.49574219 11.39289062 9.30398438 12.20703125 10.13671875 C13.09455078 11.05904297 13.09455078 11.05904297 14 12 C12.68212697 14.89529722 11.24349036 17.03026052 9.05078125 19.328125 C8.456604 19.95557617 7.86242676 20.58302734 7.25024414 21.22949219 C6.61078857 21.89625977 5.97133301 22.56302734 5.3125 23.25 C4.65564209 23.94512695 3.99878418 24.64025391 3.32202148 25.35644531 C-0.20331979 29.08477727 -3.75699262 32.78429973 -7.328125 36.46875 C-8.36126831 37.54527832 -8.36126831 37.54527832 -9.4152832 38.64355469 C-10.74383394 40.02744166 -12.08070923 41.40339384 -13.42651367 42.77050781 C-14.0269751 43.39795898 -14.62743652 44.02541016 -15.24609375 44.671875 C-15.77904053 45.2194043 -16.3119873 45.76693359 -16.86108398 46.33105469 C-18.37578281 48.21391118 -18.37578281 48.21391118 -18 52 C-16.21665022 54.07285461 -14.48372834 55.89299632 -12.5 57.75 C-11.97535156 58.25660156 -11.45070313 58.76320313 -10.91015625 59.28515625 C-9.61558637 60.53265087 -8.3089224 61.76757307 -7 63 C0.35289722 56.87258565 6.96550811 50.28675783 13.1953125 43.0234375 C15.79974834 40.10331246 18.58952374 37.38621445 21.3984375 34.6640625 C23.08628724 33.07577267 23.08628724 33.07577267 24 31 C27.90285767 32.58667578 30.33520982 35.13350481 33.25 38.125 C34.14203125 39.03507813 35.0340625 39.94515625 35.953125 40.8828125 C36.62859375 41.58148437 37.3040625 42.28015625 38 43 C34.54826197 50.92083042 26.98933721 57.07636079 20.91796875 63.05078125 C18.33498884 65.67584638 15.93381232 68.43855231 13.54296875 71.23828125 C12.08919634 72.89815811 10.57858414 74.45933981 9 76 C10.12949048 79.38847145 11.12283218 80.19694184 13.8125 82.4375 C16.66759505 84.85689832 19.4052662 87.2971523 22 90 C29.54320637 86.76476476 34.95195269 79.13938853 40.1875 73.03125 C42.92069204 69.96818995 45.86129644 67.12564659 48.79296875 64.25390625 C51.52365548 61.46522263 53.97720687 58.49553796 56.39453125 55.43359375 C58 54 58 54 62 54 C64.11849022 55.69479217 65.93007406 57.32595996 67.8125 59.25 C68.5849707 59.98669922 68.5849707 59.98669922 69.37304688 60.73828125 C70.83203125 62.203125 70.83203125 62.203125 73 65 C72.5386218 69.68387926 69.11066719 72.17497827 65.875 75.25 C64.6791129 76.41343867 63.48508733 77.57879397 62.29296875 78.74609375 C61.71981934 79.3066748 61.14666992 79.86725586 60.55615234 80.44482422 C58.09614567 82.90328711 55.85474811 85.52663 53.60546875 88.17578125 C51.19218534 90.91788186 48.5705291 93.43824828 45.96875 96 C44.06013545 97.93891002 42.27289448 99.93699551 40.5 102 C37.49201099 105.50020539 34.28752988 108.73258778 31 111.96875 C27.84274512 115.17533699 24.91555394 118.57422412 22 122 C17.90107763 120.38970907 15.23794359 117.42183917 12.25 114.3125 C8.27845508 110.25426378 4.25276637 106.38899995 -0.07421875 102.70703125 C-3.11661695 100.01021987 -5.92325809 97.08465604 -8.77734375 94.19140625 C-11.4270144 91.57898932 -14.21172803 89.16697379 -17.03515625 86.74609375 C-19.81699148 84.27396582 -22.39375951 81.61569453 -25.00390625 78.96484375 C-26.92107177 77.07769256 -28.89575322 75.31314625 -30.9375 73.5625 C-34.76110558 70.27869756 -38.27483091 66.74305339 -41.8125 63.15625 C-44.74550881 60.26514131 -47.83154573 57.62914291 -51 55 C-46.83846837 48.93605391 -42.0478131 43.92270854 -36.82275391 38.79150391 C-33.24069312 35.26687095 -29.85947181 31.65671125 -26.60546875 27.82421875 C-24.1897609 25.07936336 -21.56525503 22.55659212 -18.9609375 19.9921875 C-17.09521194 18.09672926 -15.35340745 16.14553265 -13.625 14.125 C-9.35430645 9.15078153 -4.67522621 4.59056416 0 0 Z " fill="#8BC53E" transform="translate(849,681)"/>
<path d="M0 0 C4.27846009 0.58828826 7.2507012 2.10136312 10.9375 4.31640625 C11.49888672 4.65115463 12.06027344 4.98590302 12.63867188 5.33079529 C14.42994234 6.40125854 16.21493182 7.48173292 18 8.5625 C19.1675794 9.26171827 20.33554542 9.96029136 21.50390625 10.65820312 C25.01148164 12.75760033 28.50697847 14.87650005 32 17 C32.59774231 17.36239777 33.19548462 17.72479553 33.81134033 18.09817505 C35.57649586 19.16938084 37.33939515 20.24419957 39.1015625 21.3203125 C40.13104004 21.94824707 41.16051758 22.57618164 42.22119141 23.22314453 C51.31551508 29.0383341 57.25773175 36.44240202 61.4375 46.4375 C63.23625117 57.82959071 61.95504548 67.75084728 55.1875 77.3125 C48.55133761 85.38484678 41.45153816 90.09172794 30.859375 91.3828125 C16.97357989 91.88592102 6.46774497 86.52858941 -5.19750977 79.7097168 C-6.43198853 78.99489136 -6.43198853 78.99489136 -7.69140625 78.265625 C-8.42560791 77.83024414 -9.15980957 77.39486328 -9.91625977 76.94628906 C-12.22558184 75.72434036 -12.22558184 75.72434036 -16 76 C-17.51164815 77.74993848 -17.51164815 77.74993848 -18.65625 80.12109375 C-19.12160156 80.97380859 -19.58695313 81.82652344 -20.06640625 82.70507812 C-20.77603516 84.05762695 -20.77603516 84.05762695 -21.5 85.4375 C-22.43579534 87.21347126 -23.38323224 88.98337072 -24.34375 90.74609375 C-24.96540039 91.93223267 -24.96540039 91.93223267 -25.59960938 93.14233398 C-27 95 -27 95 -28.89550781 95.91015625 C-31.70370848 96.03004231 -32.9667113 95.19259067 -35.328125 93.69140625 C-36.12734375 93.19189453 -36.9265625 92.69238281 -37.75 92.17773438 C-38.575 91.64470703 -39.4 91.11167969 -40.25 90.5625 C-41.51070312 89.76875977 -41.51070312 89.76875977 -42.796875 88.95898438 C-44.87190496 87.65030071 -46.93889699 86.33046923 -49 85 C-45.50321185 77.75841057 -41.65056731 70.7975221 -37.5625 63.875 C-36.31371787 61.74744526 -35.06502239 59.61983966 -33.81640625 57.4921875 C-32.86531982 55.87521973 -32.86531982 55.87521973 -31.89501953 54.22558594 C-28.91760821 49.15761913 -25.95941813 44.07848699 -23 39 C-21.84902867 37.02730271 -20.69798659 35.0546467 -19.546875 33.08203125 C-17.05472989 28.8100815 -14.56567264 24.53634714 -12.078125 20.26171875 C-11.43746094 19.16150391 -10.79679687 18.06128906 -10.13671875 16.92773438 C-8.90418469 14.8109911 -7.67238173 12.69382191 -6.44140625 10.57617188 C-5.88839844 9.62677734 -5.33539063 8.67738281 -4.765625 7.69921875 C-4.27868164 6.86221436 -3.79173828 6.02520996 -3.29003906 5.1628418 C-2.24469019 3.41024043 -1.13196437 1.69794655 0 0 Z M11 28 C5.72 37.24 0.44 46.48 -5 56 C-1.12571061 59.09943151 2.60277035 61.68769762 6.875 64.125 C7.75478516 64.64513672 7.75478516 64.64513672 8.65234375 65.17578125 C14.4273141 68.48845655 20.22344115 70.80691383 27.01171875 69.66015625 C31.53506722 68.15829792 34.7402661 65.13851735 37.13671875 61.0703125 C39.11197187 56.47628488 39.36054158 52.89794969 38 48 C33.35820143 38.31276821 21.04894449 32.90461736 12 28 C11.67 28 11.34 28 11 28 Z " fill="#3770C1" transform="translate(242,769)"/>
<path d="M0 0 C1.74829102 1.59716797 1.74829102 1.59716797 3.50390625 3.4921875 C4.15657471 4.19126221 4.80924316 4.89033691 5.48168945 5.6105957 C6.51169067 6.73147583 6.51169067 6.73147583 7.5625 7.875 C8.27559326 8.64223389 8.98868652 9.40946777 9.72338867 10.19995117 C11.82179776 12.46099465 13.91213828 14.72921851 16 17 C16.54205078 17.58765137 17.08410156 18.17530273 17.64257812 18.78076172 C20.77405863 22.17597876 23.88880745 25.58619905 27 29 C28.81178208 30.97983143 30.6240828 32.95916813 32.4375 34.9375 C32.8897998 35.4310498 33.34209961 35.92459961 33.80810547 36.43310547 C37.17747147 40.10780163 40.55542502 43.77449991 43.9375 47.4375 C44.43411133 47.97536133 44.93072266 48.51322266 45.44238281 49.06738281 C47.99649247 51.83282152 50.55215744 54.59680999 53.109375 57.359375 C59.12447114 63.86110485 65.09679787 70.39616529 71 77 C68.67568382 79.32431618 67.11067742 79.75875528 63.9921875 80.7265625 C63.00605469 81.0359375 62.01992188 81.3453125 61.00390625 81.6640625 C59.97136719 81.98117187 58.93882812 82.29828125 57.875 82.625 C56.83472656 82.94984375 55.79445313 83.2746875 54.72265625 83.609375 C52.15011263 84.4118198 49.57590806 85.20843503 47 86 C42.23363401 80.74557475 37.48507257 75.49783089 33 70 C24.0410078 71.69191434 15.55282238 74.70442689 6.9375 77.625 C5.38881321 78.14625345 3.83998616 78.66709036 2.29101562 79.1875 C-1.47457466 80.45277057 -5.23713069 81.72654451 -9 83 C-9.66 90.26 -10.32 97.52 -11 105 C-21.2029703 109.53465347 -21.2029703 109.53465347 -26.4375 111.25 C-27.95150391 111.75273438 -27.95150391 111.75273438 -29.49609375 112.265625 C-32 113 -32 113 -34 113 C-34.44332844 102.18567203 -33.12675071 91.46656564 -32.06640625 80.72265625 C-31.86664592 78.66291361 -31.66726559 76.60313409 -31.46824646 74.5433197 C-31.05202849 70.24722014 -30.63225332 65.95148847 -30.2097168 61.65600586 C-29.66822771 56.14977707 -29.13414309 50.64286113 -28.60249424 45.13567448 C-28.19223549 40.89158516 -27.77888739 36.64780138 -27.3645153 32.40411186 C-27.16639206 30.37279181 -26.9690465 28.34139575 -26.77249336 26.30992317 C-26.4979181 23.47852605 -26.21937861 20.64754709 -25.93969727 17.81665039 C-25.85913589 16.97869431 -25.77857452 16.14073822 -25.6955719 15.27738953 C-24.96901837 8.00151014 -24.96901837 8.00151014 -24 5 C-22.11401367 3.87158203 -22.11401367 3.87158203 -19.66796875 3.0078125 C-18.78689453 2.69585938 -17.90582031 2.38390625 -16.99804688 2.0625 C-16.07056641 1.753125 -15.14308594 1.44375 -14.1875 1.125 C-12.81368164 0.62613281 -12.81368164 0.62613281 -11.41210938 0.1171875 C-3.74595737 -2.51822674 -3.74595737 -2.51822674 0 0 Z M-6 25 C-6.34238558 28.89509132 -6.67216688 32.79115904 -7 36.6875 C-7.09539063 37.77095703 -7.19078125 38.85441406 -7.2890625 39.97070312 C-7.37929688 41.05673828 -7.46953125 42.14277344 -7.5625 43.26171875 C-7.64628906 44.24100342 -7.73007812 45.22028809 -7.81640625 46.22924805 C-8.08828363 51.81321888 -8 57.40941438 -8 63 C0.91 60.03 9.82 57.06 19 54 C16.16145976 49.74218964 13.73889177 46.45959334 10.3125 42.8125 C5.91748435 38.06588309 1.83142215 33.18390006 -2.1875 28.1171875 C-3.82689486 25.92462867 -3.82689486 25.92462867 -6 25 Z " fill="#8BC53E" transform="translate(654,824)"/>
<path d="M0 0 C1.35328792 1.11298446 2.64801961 2.29691436 3.921875 3.5 C3.34496022 6.66854747 2.50540613 8.28226459 0.19921875 10.515625 C-0.33896484 11.04414062 -0.87714844 11.57265625 -1.43164062 12.1171875 C-1.99560547 12.65601563 -2.55957031 13.19484375 -3.140625 13.75 C-3.70845703 14.30429687 -4.27628906 14.85859375 -4.86132812 15.4296875 C-6.26024969 16.79334214 -7.66831614 18.14760417 -9.078125 19.5 C-11.31403209 18.42131883 -13.44134635 17.27990041 -15.56640625 15.9921875 C-24.51853704 10.86607112 -32.92250177 9.78265042 -43.0078125 12.203125 C-52.0238668 15.4368466 -57.05128902 20.48017491 -61.1328125 29.03515625 C-64.09233859 36.75193708 -63.59597726 45.04130898 -60.953125 52.8046875 C-57.88924468 59.48194841 -54.56799585 63.97692725 -48.078125 67.5 C-47.47355469 67.83644531 -46.86898437 68.17289063 -46.24609375 68.51953125 C-38.71436465 71.99205477 -29.4657519 71.69008774 -21.765625 68.9375 C-17.43780378 66.97799788 -14.15645747 64.29035755 -10.76953125 60.98828125 C-9.078125 59.5 -9.078125 59.5 -6.078125 58.5 C-3.53100469 60.14569473 -1.24563713 61.80018336 1.109375 63.6875 C1.76357422 64.18314453 2.41777344 64.67878906 3.09179688 65.18945312 C3.70990234 65.67736328 4.32800781 66.16527344 4.96484375 66.66796875 C5.53227295 67.11422607 6.09970215 67.5604834 6.68432617 68.02026367 C7.921875 69.5 7.921875 69.5 7.921875 73.5 C1.31401523 82.61810817 -10.02374494 88.96237935 -20.93115234 91.18652344 C-36.99775393 93.53238612 -52.89344539 92.19391107 -66.73046875 83.26171875 C-78.56463317 74.38117274 -85.45758459 63.32565092 -87.65234375 48.6640625 C-89.18872061 33.85093422 -86.10956956 20.78096801 -77.0390625 8.80859375 C-58.29104103 -13.41741757 -23.48175458 -16.94923639 0 0 Z " fill="#8BC53E" transform="translate(576.078125,855.5)"/>
<path d="M0 0 C9.23900599 1.67636888 18.25457478 4.82556296 27.21484375 7.59765625 C28.6429644 8.03719803 30.07115279 8.47651974 31.49940491 8.91563416 C34.46742482 9.82889158 37.43477154 10.74429321 40.40161133 11.66137695 C44.19537075 12.83395442 47.99056864 14.00179408 51.7862463 15.16814518 C54.72501516 16.07160986 57.66313219 16.97717876 60.60104561 17.88342094 C62.00065468 18.31495441 63.40043659 18.74592775 64.80039787 19.17631721 C66.75291613 19.77700615 68.70456633 20.3804364 70.65600586 20.98461914 C71.76342636 21.32642715 72.87084686 21.66823517 74.01182556 22.020401 C76.72810237 22.9108651 79.36116293 23.90352017 82 25 C81.73725854 26.48062542 81.46421764 27.95942285 81.1875 29.4375 C80.96126953 30.67306641 80.96126953 30.67306641 80.73046875 31.93359375 C79.75026048 36.04837178 78.38417431 40.00585697 77 44 C76.410979 43.82871582 75.82195801 43.65743164 75.21508789 43.48095703 C72.49838873 42.69274438 69.78046047 41.90885178 67.0625 41.125 C66.13630859 40.85558594 65.21011719 40.58617187 64.25585938 40.30859375 C63.33740234 40.04433594 62.41894531 39.78007813 61.47265625 39.5078125 C60.64000244 39.26691895 59.80734863 39.02602539 58.94946289 38.77783203 C54.99155002 37.73405168 51.00007736 36.86581583 47 36 C46.72660294 36.89758026 46.45320587 37.79516052 46.17152405 38.71994019 C43.59836608 47.1669529 41.0233435 55.6133952 38.44648075 64.05927849 C37.12166176 68.40169965 35.79750712 72.7443211 34.47485352 77.08740234 C33.19908136 81.27645636 31.92158669 85.46498145 30.64288139 89.65314102 C30.15463952 91.2533803 29.66702514 92.85381116 29.18004036 94.45443344 C28.49935843 96.6913198 27.81647534 98.92752274 27.13305664 101.16357422 C26.93093567 101.82963684 26.7288147 102.49569946 26.52056885 103.1819458 C25.79816623 105.53939514 25.10486678 107.79026644 24 110 C18.60607261 109.38334864 13.71604717 108.12077204 8.5625 106.4375 C7.46518555 106.08655273 7.46518555 106.08655273 6.34570312 105.72851562 C4.56219821 105.15732778 2.78086417 104.57936877 1 104 C2.97398947 95.66907383 5.29609948 87.48546548 7.8359127 79.31022263 C8.46506266 77.2849346 9.09014429 75.25842728 9.71430969 73.2315979 C11.03516932 68.94496877 12.36108059 64.65991141 13.6875 60.375 C15.23635517 55.37015048 16.78310996 50.36466657 18.32535744 45.35777664 C18.94127564 43.36167992 19.56060254 41.36666203 20.18009949 39.37167358 C20.5508107 38.16927032 20.92152191 36.96686707 21.3034668 35.72802734 C21.63195114 34.66723969 21.96043549 33.60645203 22.2988739 32.51351929 C23.0895616 30.11383636 23.0895616 30.11383636 23 28 C13.43 25.03 3.86 22.06 -6 19 C-5.195625 16.050625 -4.39125 13.10125 -3.5625 10.0625 C-3.31056885 9.13187744 -3.0586377 8.20125488 -2.79907227 7.24243164 C-2.59854248 6.51403076 -2.3980127 5.78562988 -2.19140625 5.03515625 C-1.98717041 4.2862915 -1.78293457 3.53742676 -1.57250977 2.76586914 C-1 1 -1 1 0 0 Z " fill="#3770C1" transform="translate(330,817)"/>
<path d="M0 0 C4.92048552 4.14886393 7.85809942 9.13805148 8.78125 15.51171875 C9.04726562 21.86653632 7.21844138 26.77121435 3.34375 31.76171875 C-0.51043529 35.70767035 -4.049794 37.6583166 -9.44775391 38.70776367 C-10.45295074 38.9077446 -11.45814758 39.10772552 -12.49380493 39.31376648 C-13.57092743 39.51702042 -14.64804993 39.72027435 -15.7578125 39.9296875 C-16.87884369 40.14740311 -17.99987488 40.36511871 -19.15487671 40.58943176 C-21.52598557 41.04713649 -23.89805746 41.49987635 -26.27099609 41.94799805 C-29.8751094 42.63081898 -33.47463449 43.3347556 -37.07421875 44.04101562 C-39.38517049 44.48435803 -41.69636156 44.92645515 -44.0078125 45.3671875 C-45.07278961 45.57651413 -46.13776672 45.78584076 -47.23501587 46.00151062 C-65.49324726 49.39825518 -65.49324726 49.39825518 -73.5625 44.71875 C-77.921575 41.4989787 -80.5500568 37.58205472 -82.28125 32.44921875 C-83.04775459 26.4865261 -82.95539943 20.5949066 -79.75756836 15.35791016 C-74.42634224 8.46531452 -66.54330554 6.31394514 -58.34375 4.88671875 C-57.31467529 4.69182861 -56.28560059 4.49693848 -55.2253418 4.29614258 C-53.04032569 3.88317042 -50.85382647 3.47797898 -48.66601562 3.08007812 C-45.23057146 2.43977318 -41.81138642 1.74169631 -38.390625 1.02734375 C-36.12508797 0.56337231 -33.85946516 0.09981952 -31.59375 -0.36328125 C-30.55677979 -0.58250244 -29.51980957 -0.80172363 -28.45141602 -1.02758789 C-19.4869535 -2.80243835 -8.25902873 -4.98691353 0 0 Z " fill="#8BC53E" transform="translate(292.28125,629.55078125)"/>
<path d="M0 0 C4.70489242 3.8684671 7.48940852 8.05515623 8.28515625 14.203125 C8.54268312 20.7868555 6.99964518 25.68462137 2.625 30.75 C-5.40792263 37.63536225 -15.03429323 38.65264391 -25.16845703 40.28710938 C-27.23246506 40.62215361 -29.29385353 40.97088619 -31.35546875 41.3203125 C-52.57967931 44.82775125 -52.57967931 44.82775125 -60.21484375 40.3125 C-65.34174999 36.54304596 -68.11487436 32.89804445 -69.5625 26.625 C-70.5213466 19.49235543 -68.69337306 14.63966978 -64.875 8.6875 C-57.3169592 1.62237491 -47.27339962 0.68512661 -37.43457031 -0.86523438 C-35.00318752 -1.24949624 -32.57593492 -1.65448427 -30.1484375 -2.0625 C-28.57832547 -2.31893882 -27.00801848 -2.5741873 -25.4375 -2.828125 C-24.724729 -2.94681946 -24.01195801 -3.06551392 -23.27758789 -3.18780518 C-14.65031902 -4.52635456 -7.45481031 -4.99162353 0 0 Z " fill="#8AC53E" transform="translate(274,591)"/>
<path d="M0 0 C0.78793945 0.00837891 1.57587891 0.01675781 2.38769531 0.02539062 C10.28169184 0.33113256 15.5064487 2.78949059 20.94921875 8.55859375 C26.58540723 15.55947678 28.82950048 22.20993567 28.6015625 31.203125 C27.59309613 38.44424416 24.19855183 45.07963853 18.875 50.125 C11.44453548 55.63266888 3.3043614 57.930569 -5.875 56.625 C-13.78654068 54.46148807 -20.23844833 49.66134136 -24.70703125 42.8203125 C-28.04615169 36.6738285 -30.06037183 31.60140711 -28.875 24.625 C-28.75125 23.82449219 -28.6275 23.02398437 -28.5 22.19921875 C-26.74103582 14.34495509 -21.85248906 7.86790954 -15.10253906 3.47021484 C-10.07647604 0.68113534 -5.70532346 -0.08314659 0 0 Z " fill="#FCFDFE" transform="translate(561.875,288.375)"/>
<path d="M0 0 C3.45894228 0.30598678 6.917015 0.62089228 10.375 0.9375 C11.85226562 1.06801758 11.85226562 1.06801758 13.359375 1.20117188 C14.77089844 1.33168945 14.77089844 1.33168945 16.2109375 1.46484375 C17.51490479 1.58267212 17.51490479 1.58267212 18.84521484 1.70288086 C21 2 21 2 23 3 C23.09921436 9.17122424 22.77678803 15.07515321 21.99023438 21.19165039 C21.82930046 22.49572342 21.82930046 22.49572342 21.66511536 23.82614136 C21.31319039 26.66732079 20.95353968 29.50746301 20.59375 32.34765625 C20.34664739 34.33013535 20.10003211 36.31267525 19.85388184 38.29527283 C19.20771652 43.48913146 18.55497241 48.68214238 17.90081787 53.875 C17.23326024 59.18374519 16.5719788 64.49327172 15.91015625 69.80273438 C14.6128847 80.20259368 13.30865618 90.60156757 12 101 C8.56195706 100.69329496 5.12468713 100.3786405 1.6875 100.0625 C0.71103516 99.97548828 -0.26542969 99.88847656 -1.27148438 99.79882812 C-2.20927734 99.71181641 -3.14707031 99.62480469 -4.11328125 99.53515625 C-4.97735596 99.456604 -5.84143066 99.37805176 -6.73168945 99.29711914 C-9 99 -9 99 -12 98 C-9.63439773 75.83008967 -7.02528461 53.6925427 -4.3125 31.5625 C-4.0783992 29.64523605 -4.0783992 29.64523605 -3.83956909 27.6892395 C-3.39138765 24.02301464 -2.94036905 20.35715124 -2.48828125 16.69140625 C-2.35300018 15.58450439 -2.21771912 14.47760254 -2.07833862 13.3371582 C-1.95105377 12.31138672 -1.82376892 11.28561523 -1.69262695 10.22875977 C-1.58255814 9.33584732 -1.47248932 8.44293488 -1.35908508 7.52296448 C-0.99869533 4.99083324 -0.52591939 2.50252306 0 0 Z " fill="#3770C1" transform="translate(435,844)"/>
<path d="M0 0 C4.14866582 0.66674986 5.81886615 1.31264078 8.5 4.5625 C9.29190864 9.55152441 9.30380719 11.39332591 6.4375 15.5625 C2.75623347 18.06889423 0.87098953 18.27775283 -3.5 17.5625 C-6.80748965 14.95132396 -8.31680509 12.93646185 -8.875 8.75 C-8.5 5.5625 -8.5 5.5625 -6.4375 2.6875 C-3.5 0.5625 -3.5 0.5625 0 0 Z " fill="#FAFCFD" transform="translate(517.5,351.4375)"/>
<path d="M0 0 C0.66 0.66 1.32 1.32 2 2 C1.34 2 0.68 2 0 2 C0 1.34 0 0.68 0 0 Z " fill="#3571C8" transform="translate(789,207)"/>
<path d="" fill="#3575BF" transform="translate(0,0)"/>
</svg>
